<mxfile host="app.diagrams.net" modified="2023-09-30T09:53:56.096Z" agent="Mozilla/5.0 (Windows NT 10.0; Win64; x64) AppleWebKit/537.36 (KHTML, like Gecko) Chrome/117.0.0.0 Safari/537.36" etag="9an0nQuKNfpcghEVph8D" version="22.0.0" type="device">
  <diagram name="Trang-1" id="Cu3a8MfInnqjzVp0vXfk">
    <mxGraphModel dx="2275" dy="1193" grid="1" gridSize="10" guides="1" tooltips="1" connect="1" arrows="1" fold="1" page="1" pageScale="1" pageWidth="827" pageHeight="1169" math="0" shadow="0">
      <root>
        <mxCell id="0" />
        <mxCell id="1" parent="0" />
        <mxCell id="EnHhpUaNQY2PojhGJ-AY-1" value="Admin" style="shape=umlActor;verticalLabelPosition=bottom;verticalAlign=top;html=1;outlineConnect=0;" vertex="1" parent="1">
          <mxGeometry x="120" y="40" width="30" height="60" as="geometry" />
        </mxCell>
        <mxCell id="EnHhpUaNQY2PojhGJ-AY-4" value="" style="endArrow=none;dashed=1;html=1;dashPattern=1 3;strokeWidth=2;rounded=0;" edge="1" parent="1">
          <mxGeometry width="50" height="50" relative="1" as="geometry">
            <mxPoint x="140" y="880" as="sourcePoint" />
            <mxPoint x="140" y="120" as="targetPoint" />
          </mxGeometry>
        </mxCell>
        <mxCell id="EnHhpUaNQY2PojhGJ-AY-5" value="Order List Page" style="rounded=0;whiteSpace=wrap;html=1;" vertex="1" parent="1">
          <mxGeometry x="320" y="40" width="120" height="60" as="geometry" />
        </mxCell>
        <mxCell id="EnHhpUaNQY2PojhGJ-AY-6" value="" style="endArrow=none;dashed=1;html=1;dashPattern=1 3;strokeWidth=2;rounded=0;" edge="1" parent="1" source="EnHhpUaNQY2PojhGJ-AY-39">
          <mxGeometry width="50" height="50" relative="1" as="geometry">
            <mxPoint x="379" y="1210" as="sourcePoint" />
            <mxPoint x="380" y="100" as="targetPoint" />
          </mxGeometry>
        </mxCell>
        <mxCell id="EnHhpUaNQY2PojhGJ-AY-7" value="AdminController" style="rounded=0;whiteSpace=wrap;html=1;" vertex="1" parent="1">
          <mxGeometry x="581" y="40" width="120" height="60" as="geometry" />
        </mxCell>
        <mxCell id="EnHhpUaNQY2PojhGJ-AY-8" value="" style="endArrow=none;dashed=1;html=1;dashPattern=1 3;strokeWidth=2;rounded=0;" edge="1" parent="1" source="EnHhpUaNQY2PojhGJ-AY-15">
          <mxGeometry width="50" height="50" relative="1" as="geometry">
            <mxPoint x="640" y="1210" as="sourcePoint" />
            <mxPoint x="641" y="100" as="targetPoint" />
          </mxGeometry>
        </mxCell>
        <mxCell id="EnHhpUaNQY2PojhGJ-AY-9" value="OrderDAO" style="rounded=0;whiteSpace=wrap;html=1;" vertex="1" parent="1">
          <mxGeometry x="855" y="41" width="120" height="60" as="geometry" />
        </mxCell>
        <mxCell id="EnHhpUaNQY2PojhGJ-AY-10" value="" style="endArrow=none;dashed=1;html=1;dashPattern=1 3;strokeWidth=2;rounded=0;" edge="1" parent="1" source="EnHhpUaNQY2PojhGJ-AY-22">
          <mxGeometry width="50" height="50" relative="1" as="geometry">
            <mxPoint x="914" y="1211" as="sourcePoint" />
            <mxPoint x="915" y="101" as="targetPoint" />
          </mxGeometry>
        </mxCell>
        <mxCell id="EnHhpUaNQY2PojhGJ-AY-11" value="" style="endArrow=classic;html=1;rounded=0;" edge="1" parent="1">
          <mxGeometry width="50" height="50" relative="1" as="geometry">
            <mxPoint x="140" y="160" as="sourcePoint" />
            <mxPoint x="380" y="160" as="targetPoint" />
          </mxGeometry>
        </mxCell>
        <mxCell id="EnHhpUaNQY2PojhGJ-AY-12" value="1. input search fillter" style="edgeLabel;html=1;align=center;verticalAlign=middle;resizable=0;points=[];" vertex="1" connectable="0" parent="EnHhpUaNQY2PojhGJ-AY-11">
          <mxGeometry x="0.2856" y="-1" relative="1" as="geometry">
            <mxPoint x="-24" as="offset" />
          </mxGeometry>
        </mxCell>
        <mxCell id="EnHhpUaNQY2PojhGJ-AY-13" value="" style="endArrow=classic;html=1;rounded=0;" edge="1" parent="1">
          <mxGeometry width="50" height="50" relative="1" as="geometry">
            <mxPoint x="380" y="180" as="sourcePoint" />
            <mxPoint x="640" y="180" as="targetPoint" />
          </mxGeometry>
        </mxCell>
        <mxCell id="EnHhpUaNQY2PojhGJ-AY-14" value="2. doGet()" style="edgeLabel;html=1;align=center;verticalAlign=middle;resizable=0;points=[];" vertex="1" connectable="0" parent="EnHhpUaNQY2PojhGJ-AY-13">
          <mxGeometry x="-0.1452" y="-2" relative="1" as="geometry">
            <mxPoint as="offset" />
          </mxGeometry>
        </mxCell>
        <mxCell id="EnHhpUaNQY2PojhGJ-AY-16" value="" style="endArrow=none;dashed=1;html=1;dashPattern=1 3;strokeWidth=2;rounded=0;" edge="1" parent="1" target="EnHhpUaNQY2PojhGJ-AY-15">
          <mxGeometry width="50" height="50" relative="1" as="geometry">
            <mxPoint x="640" y="880" as="sourcePoint" />
            <mxPoint x="641" y="100" as="targetPoint" />
          </mxGeometry>
        </mxCell>
        <mxCell id="EnHhpUaNQY2PojhGJ-AY-15" value="" style="rounded=0;whiteSpace=wrap;html=1;" vertex="1" parent="1">
          <mxGeometry x="636" y="180" width="10" height="620" as="geometry" />
        </mxCell>
        <mxCell id="EnHhpUaNQY2PojhGJ-AY-17" value="" style="endArrow=classic;html=1;rounded=0;exitX=0.992;exitY=0.032;exitDx=0;exitDy=0;exitPerimeter=0;entryX=0.823;entryY=0.034;entryDx=0;entryDy=0;entryPerimeter=0;" edge="1" parent="1" source="EnHhpUaNQY2PojhGJ-AY-15" target="EnHhpUaNQY2PojhGJ-AY-18">
          <mxGeometry width="50" height="50" relative="1" as="geometry">
            <mxPoint x="660" y="200" as="sourcePoint" />
            <mxPoint x="670" y="270" as="targetPoint" />
            <Array as="points">
              <mxPoint x="710" y="200" />
              <mxPoint x="710" y="270" />
            </Array>
          </mxGeometry>
        </mxCell>
        <mxCell id="EnHhpUaNQY2PojhGJ-AY-19" value="3. searchAndFillterOrder()" style="edgeLabel;html=1;align=center;verticalAlign=middle;resizable=0;points=[];" vertex="1" connectable="0" parent="EnHhpUaNQY2PojhGJ-AY-17">
          <mxGeometry x="0.0082" y="-3" relative="1" as="geometry">
            <mxPoint x="13" as="offset" />
          </mxGeometry>
        </mxCell>
        <mxCell id="EnHhpUaNQY2PojhGJ-AY-18" value="" style="rounded=0;whiteSpace=wrap;html=1;" vertex="1" parent="1">
          <mxGeometry x="646" y="250" width="10" height="540" as="geometry" />
        </mxCell>
        <mxCell id="EnHhpUaNQY2PojhGJ-AY-20" value="" style="endArrow=classic;html=1;rounded=0;entryX=0;entryY=0;entryDx=0;entryDy=0;exitX=1.141;exitY=0.13;exitDx=0;exitDy=0;exitPerimeter=0;" edge="1" parent="1" source="EnHhpUaNQY2PojhGJ-AY-18" target="EnHhpUaNQY2PojhGJ-AY-22">
          <mxGeometry width="50" height="50" relative="1" as="geometry">
            <mxPoint x="660" y="320" as="sourcePoint" />
            <mxPoint x="900" y="320" as="targetPoint" />
          </mxGeometry>
        </mxCell>
        <mxCell id="EnHhpUaNQY2PojhGJ-AY-24" value="4. getNumberOfOrder()" style="edgeLabel;html=1;align=center;verticalAlign=middle;resizable=0;points=[];" vertex="1" connectable="0" parent="EnHhpUaNQY2PojhGJ-AY-20">
          <mxGeometry x="-0.0435" y="3" relative="1" as="geometry">
            <mxPoint y="3" as="offset" />
          </mxGeometry>
        </mxCell>
        <mxCell id="EnHhpUaNQY2PojhGJ-AY-23" value="" style="endArrow=none;dashed=1;html=1;dashPattern=1 3;strokeWidth=2;rounded=0;" edge="1" parent="1" source="EnHhpUaNQY2PojhGJ-AY-46" target="EnHhpUaNQY2PojhGJ-AY-22">
          <mxGeometry width="50" height="50" relative="1" as="geometry">
            <mxPoint x="914" y="1211" as="sourcePoint" />
            <mxPoint x="915" y="101" as="targetPoint" />
          </mxGeometry>
        </mxCell>
        <mxCell id="EnHhpUaNQY2PojhGJ-AY-22" value="" style="rounded=0;whiteSpace=wrap;html=1;" vertex="1" parent="1">
          <mxGeometry x="910" y="320" width="10" height="220" as="geometry" />
        </mxCell>
        <mxCell id="EnHhpUaNQY2PojhGJ-AY-25" value="" style="endArrow=classic;html=1;rounded=0;exitX=1.102;exitY=0.086;exitDx=0;exitDy=0;exitPerimeter=0;entryX=0;entryY=0;entryDx=0;entryDy=0;" edge="1" parent="1" source="EnHhpUaNQY2PojhGJ-AY-22" target="EnHhpUaNQY2PojhGJ-AY-29">
          <mxGeometry width="50" height="50" relative="1" as="geometry">
            <mxPoint x="930" y="340" as="sourcePoint" />
            <mxPoint x="1240" y="340" as="targetPoint" />
          </mxGeometry>
        </mxCell>
        <mxCell id="EnHhpUaNQY2PojhGJ-AY-62" value="5. executeQuery()" style="edgeLabel;html=1;align=center;verticalAlign=middle;resizable=0;points=[];" vertex="1" connectable="0" parent="EnHhpUaNQY2PojhGJ-AY-25">
          <mxGeometry x="-0.1878" relative="1" as="geometry">
            <mxPoint x="26" y="1" as="offset" />
          </mxGeometry>
        </mxCell>
        <mxCell id="EnHhpUaNQY2PojhGJ-AY-27" value="" style="endArrow=none;dashed=1;html=1;rounded=0;entryX=0.5;entryY=1;entryDx=0;entryDy=0;" edge="1" parent="1" source="EnHhpUaNQY2PojhGJ-AY-29">
          <mxGeometry width="50" height="50" relative="1" as="geometry">
            <mxPoint x="1255" y="1180" as="sourcePoint" />
            <mxPoint x="1255" y="120" as="targetPoint" />
          </mxGeometry>
        </mxCell>
        <mxCell id="EnHhpUaNQY2PojhGJ-AY-28" value="DB" style="shape=cylinder3;whiteSpace=wrap;html=1;boundedLbl=1;backgroundOutline=1;size=15;" vertex="1" parent="1">
          <mxGeometry x="1225" y="41" width="60" height="80" as="geometry" />
        </mxCell>
        <mxCell id="EnHhpUaNQY2PojhGJ-AY-30" value="" style="endArrow=none;dashed=1;html=1;rounded=0;entryX=0.5;entryY=1;entryDx=0;entryDy=0;" edge="1" parent="1" source="EnHhpUaNQY2PojhGJ-AY-50" target="EnHhpUaNQY2PojhGJ-AY-29">
          <mxGeometry width="50" height="50" relative="1" as="geometry">
            <mxPoint x="1255" y="1180" as="sourcePoint" />
            <mxPoint x="1255" y="120" as="targetPoint" />
          </mxGeometry>
        </mxCell>
        <mxCell id="EnHhpUaNQY2PojhGJ-AY-29" value="" style="rounded=0;whiteSpace=wrap;html=1;" vertex="1" parent="1">
          <mxGeometry x="1250" y="340" width="10" height="60" as="geometry" />
        </mxCell>
        <mxCell id="EnHhpUaNQY2PojhGJ-AY-31" value="" style="endArrow=classic;html=1;rounded=0;dashed=1;exitX=0;exitY=1;exitDx=0;exitDy=0;entryX=0.975;entryY=0.36;entryDx=0;entryDy=0;entryPerimeter=0;" edge="1" parent="1" source="EnHhpUaNQY2PojhGJ-AY-29" target="EnHhpUaNQY2PojhGJ-AY-22">
          <mxGeometry width="50" height="50" relative="1" as="geometry">
            <mxPoint x="1210" y="400" as="sourcePoint" />
            <mxPoint x="930" y="400" as="targetPoint" />
          </mxGeometry>
        </mxCell>
        <mxCell id="EnHhpUaNQY2PojhGJ-AY-32" value="6. return result" style="edgeLabel;html=1;align=center;verticalAlign=middle;resizable=0;points=[];" vertex="1" connectable="0" parent="EnHhpUaNQY2PojhGJ-AY-31">
          <mxGeometry x="0.0703" y="-1" relative="1" as="geometry">
            <mxPoint as="offset" />
          </mxGeometry>
        </mxCell>
        <mxCell id="EnHhpUaNQY2PojhGJ-AY-33" value="" style="endArrow=classic;html=1;rounded=0;dashed=1;entryX=0.991;entryY=0.313;entryDx=0;entryDy=0;entryPerimeter=0;exitX=-0.164;exitY=0.457;exitDx=0;exitDy=0;exitPerimeter=0;" edge="1" parent="1" source="EnHhpUaNQY2PojhGJ-AY-22" target="EnHhpUaNQY2PojhGJ-AY-18">
          <mxGeometry width="50" height="50" relative="1" as="geometry">
            <mxPoint x="900" y="420" as="sourcePoint" />
            <mxPoint x="660" y="420" as="targetPoint" />
          </mxGeometry>
        </mxCell>
        <mxCell id="EnHhpUaNQY2PojhGJ-AY-34" value="7. send not found order notification" style="edgeLabel;html=1;align=center;verticalAlign=middle;resizable=0;points=[];" vertex="1" connectable="0" parent="EnHhpUaNQY2PojhGJ-AY-33">
          <mxGeometry x="0.1864" y="1" relative="1" as="geometry">
            <mxPoint x="25" as="offset" />
          </mxGeometry>
        </mxCell>
        <mxCell id="EnHhpUaNQY2PojhGJ-AY-35" value="" style="endArrow=classic;html=1;rounded=0;entryX=0.903;entryY=0.397;entryDx=0;entryDy=0;entryPerimeter=0;exitX=-0.115;exitY=0.404;exitDx=0;exitDy=0;exitPerimeter=0;" edge="1" parent="1" source="EnHhpUaNQY2PojhGJ-AY-15" target="EnHhpUaNQY2PojhGJ-AY-39">
          <mxGeometry width="50" height="50" relative="1" as="geometry">
            <mxPoint x="620" y="440" as="sourcePoint" />
            <mxPoint x="390" y="430" as="targetPoint" />
          </mxGeometry>
        </mxCell>
        <mxCell id="EnHhpUaNQY2PojhGJ-AY-38" value="7.2 display not found order" style="edgeLabel;html=1;align=center;verticalAlign=middle;resizable=0;points=[];" vertex="1" connectable="0" parent="EnHhpUaNQY2PojhGJ-AY-35">
          <mxGeometry x="-0.2733" y="-1" relative="1" as="geometry">
            <mxPoint x="-17" y="1" as="offset" />
          </mxGeometry>
        </mxCell>
        <mxCell id="EnHhpUaNQY2PojhGJ-AY-40" value="" style="endArrow=none;dashed=1;html=1;dashPattern=1 3;strokeWidth=2;rounded=0;" edge="1" parent="1" target="EnHhpUaNQY2PojhGJ-AY-39">
          <mxGeometry width="50" height="50" relative="1" as="geometry">
            <mxPoint x="379" y="890" as="sourcePoint" />
            <mxPoint x="380" y="100" as="targetPoint" />
          </mxGeometry>
        </mxCell>
        <mxCell id="EnHhpUaNQY2PojhGJ-AY-39" value="" style="rounded=0;whiteSpace=wrap;html=1;" vertex="1" parent="1">
          <mxGeometry x="375" y="160" width="10" height="680" as="geometry" />
        </mxCell>
        <mxCell id="EnHhpUaNQY2PojhGJ-AY-41" value="" style="endArrow=classic;html=1;rounded=0;exitX=-0.093;exitY=0.426;exitDx=0;exitDy=0;exitPerimeter=0;" edge="1" parent="1" source="EnHhpUaNQY2PojhGJ-AY-39">
          <mxGeometry width="50" height="50" relative="1" as="geometry">
            <mxPoint x="360" y="450" as="sourcePoint" />
            <mxPoint x="140" y="450" as="targetPoint" />
          </mxGeometry>
        </mxCell>
        <mxCell id="EnHhpUaNQY2PojhGJ-AY-42" value="7.3 display not found order" style="edgeLabel;html=1;align=center;verticalAlign=middle;resizable=0;points=[];" vertex="1" connectable="0" parent="EnHhpUaNQY2PojhGJ-AY-41">
          <mxGeometry x="-0.2733" y="-1" relative="1" as="geometry">
            <mxPoint as="offset" />
          </mxGeometry>
        </mxCell>
        <mxCell id="EnHhpUaNQY2PojhGJ-AY-43" value="" style="endArrow=classic;html=1;rounded=0;dashed=1;exitX=-0.082;exitY=0.958;exitDx=0;exitDy=0;exitPerimeter=0;entryX=0.973;entryY=0.521;entryDx=0;entryDy=0;entryPerimeter=0;" edge="1" parent="1" source="EnHhpUaNQY2PojhGJ-AY-22" target="EnHhpUaNQY2PojhGJ-AY-18">
          <mxGeometry width="50" height="50" relative="1" as="geometry">
            <mxPoint x="900" y="530" as="sourcePoint" />
            <mxPoint x="670" y="530" as="targetPoint" />
          </mxGeometry>
        </mxCell>
        <mxCell id="EnHhpUaNQY2PojhGJ-AY-44" value="8. return number of order" style="edgeLabel;html=1;align=center;verticalAlign=middle;resizable=0;points=[];" vertex="1" connectable="0" parent="EnHhpUaNQY2PojhGJ-AY-43">
          <mxGeometry x="-0.3095" y="-2" relative="1" as="geometry">
            <mxPoint x="-32" y="2" as="offset" />
          </mxGeometry>
        </mxCell>
        <mxCell id="EnHhpUaNQY2PojhGJ-AY-45" value="" style="endArrow=classic;html=1;rounded=0;exitX=1.155;exitY=0.666;exitDx=0;exitDy=0;exitPerimeter=0;entryX=0;entryY=0;entryDx=0;entryDy=0;" edge="1" parent="1" source="EnHhpUaNQY2PojhGJ-AY-18" target="EnHhpUaNQY2PojhGJ-AY-46">
          <mxGeometry width="50" height="50" relative="1" as="geometry">
            <mxPoint x="660" y="610" as="sourcePoint" />
            <mxPoint x="900" y="610" as="targetPoint" />
          </mxGeometry>
        </mxCell>
        <mxCell id="EnHhpUaNQY2PojhGJ-AY-48" value="9. getSearchAndFillterOrder()" style="edgeLabel;html=1;align=center;verticalAlign=middle;resizable=0;points=[];" vertex="1" connectable="0" parent="EnHhpUaNQY2PojhGJ-AY-45">
          <mxGeometry x="0.2562" y="-1" relative="1" as="geometry">
            <mxPoint x="-26" y="-1" as="offset" />
          </mxGeometry>
        </mxCell>
        <mxCell id="EnHhpUaNQY2PojhGJ-AY-47" value="" style="endArrow=none;dashed=1;html=1;dashPattern=1 3;strokeWidth=2;rounded=0;" edge="1" parent="1" target="EnHhpUaNQY2PojhGJ-AY-46">
          <mxGeometry width="50" height="50" relative="1" as="geometry">
            <mxPoint x="914" y="870" as="sourcePoint" />
            <mxPoint x="915" y="540" as="targetPoint" />
          </mxGeometry>
        </mxCell>
        <mxCell id="EnHhpUaNQY2PojhGJ-AY-46" value="" style="rounded=0;whiteSpace=wrap;html=1;" vertex="1" parent="1">
          <mxGeometry x="910" y="610" width="10" height="150" as="geometry" />
        </mxCell>
        <mxCell id="EnHhpUaNQY2PojhGJ-AY-49" value="" style="endArrow=classic;html=1;rounded=0;exitX=0.953;exitY=0.339;exitDx=0;exitDy=0;exitPerimeter=0;entryX=0;entryY=0;entryDx=0;entryDy=0;" edge="1" parent="1" source="EnHhpUaNQY2PojhGJ-AY-46" target="EnHhpUaNQY2PojhGJ-AY-50">
          <mxGeometry width="50" height="50" relative="1" as="geometry">
            <mxPoint x="930" y="660" as="sourcePoint" />
            <mxPoint x="1220" y="660" as="targetPoint" />
          </mxGeometry>
        </mxCell>
        <mxCell id="EnHhpUaNQY2PojhGJ-AY-56" value="10. executeQuery()" style="edgeLabel;html=1;align=center;verticalAlign=middle;resizable=0;points=[];" vertex="1" connectable="0" parent="EnHhpUaNQY2PojhGJ-AY-49">
          <mxGeometry x="-0.1078" relative="1" as="geometry">
            <mxPoint as="offset" />
          </mxGeometry>
        </mxCell>
        <mxCell id="EnHhpUaNQY2PojhGJ-AY-51" value="" style="endArrow=none;dashed=1;html=1;rounded=0;entryX=0.5;entryY=1;entryDx=0;entryDy=0;" edge="1" parent="1" target="EnHhpUaNQY2PojhGJ-AY-50">
          <mxGeometry width="50" height="50" relative="1" as="geometry">
            <mxPoint x="1255" y="860" as="sourcePoint" />
            <mxPoint x="1255" y="400" as="targetPoint" />
          </mxGeometry>
        </mxCell>
        <mxCell id="EnHhpUaNQY2PojhGJ-AY-50" value="" style="rounded=0;whiteSpace=wrap;html=1;" vertex="1" parent="1">
          <mxGeometry x="1250" y="660" width="10" height="60" as="geometry" />
        </mxCell>
        <mxCell id="EnHhpUaNQY2PojhGJ-AY-52" value="" style="endArrow=classic;html=1;rounded=0;dashed=1;entryX=1;entryY=0.75;entryDx=0;entryDy=0;exitX=0;exitY=1;exitDx=0;exitDy=0;" edge="1" parent="1" source="EnHhpUaNQY2PojhGJ-AY-50" target="EnHhpUaNQY2PojhGJ-AY-46">
          <mxGeometry width="50" height="50" relative="1" as="geometry">
            <mxPoint x="1220" y="720" as="sourcePoint" />
            <mxPoint x="930" y="720" as="targetPoint" />
          </mxGeometry>
        </mxCell>
        <mxCell id="EnHhpUaNQY2PojhGJ-AY-53" value="11. return result" style="edgeLabel;html=1;align=center;verticalAlign=middle;resizable=0;points=[];" vertex="1" connectable="0" parent="EnHhpUaNQY2PojhGJ-AY-52">
          <mxGeometry x="-0.0437" y="1" relative="1" as="geometry">
            <mxPoint x="-32" y="-2" as="offset" />
          </mxGeometry>
        </mxCell>
        <mxCell id="EnHhpUaNQY2PojhGJ-AY-54" value="" style="endArrow=classic;html=1;rounded=0;dashed=1;exitX=-0.364;exitY=0.923;exitDx=0;exitDy=0;exitPerimeter=0;" edge="1" parent="1" source="EnHhpUaNQY2PojhGJ-AY-46">
          <mxGeometry width="50" height="50" relative="1" as="geometry">
            <mxPoint x="893.48" y="749.0500000000001" as="sourcePoint" />
            <mxPoint x="656" y="750" as="targetPoint" />
          </mxGeometry>
        </mxCell>
        <mxCell id="EnHhpUaNQY2PojhGJ-AY-55" value="12. return search and fillter order list" style="edgeLabel;html=1;align=center;verticalAlign=middle;resizable=0;points=[];" vertex="1" connectable="0" parent="EnHhpUaNQY2PojhGJ-AY-54">
          <mxGeometry x="-0.2685" y="-1" relative="1" as="geometry">
            <mxPoint x="-25" as="offset" />
          </mxGeometry>
        </mxCell>
        <mxCell id="EnHhpUaNQY2PojhGJ-AY-57" value="" style="endArrow=classic;html=1;rounded=0;entryX=1.243;entryY=0.916;entryDx=0;entryDy=0;entryPerimeter=0;exitX=0.4;exitY=0.968;exitDx=0;exitDy=0;exitPerimeter=0;" edge="1" parent="1" source="EnHhpUaNQY2PojhGJ-AY-15" target="EnHhpUaNQY2PojhGJ-AY-39">
          <mxGeometry width="50" height="50" relative="1" as="geometry">
            <mxPoint x="630" y="780" as="sourcePoint" />
            <mxPoint x="410" y="780" as="targetPoint" />
          </mxGeometry>
        </mxCell>
        <mxCell id="EnHhpUaNQY2PojhGJ-AY-58" value="13. display search and filter result" style="edgeLabel;html=1;align=center;verticalAlign=middle;resizable=0;points=[];" vertex="1" connectable="0" parent="EnHhpUaNQY2PojhGJ-AY-57">
          <mxGeometry x="-0.5633" y="-4" relative="1" as="geometry">
            <mxPoint x="-62" y="4" as="offset" />
          </mxGeometry>
        </mxCell>
        <mxCell id="EnHhpUaNQY2PojhGJ-AY-59" value="" style="endArrow=classic;html=1;rounded=0;exitX=0.064;exitY=0.97;exitDx=0;exitDy=0;exitPerimeter=0;" edge="1" parent="1" source="EnHhpUaNQY2PojhGJ-AY-39">
          <mxGeometry width="50" height="50" relative="1" as="geometry">
            <mxPoint x="370" y="820" as="sourcePoint" />
            <mxPoint x="140" y="820" as="targetPoint" />
          </mxGeometry>
        </mxCell>
        <mxCell id="EnHhpUaNQY2PojhGJ-AY-60" value="14. display search and filter result" style="edgeLabel;html=1;align=center;verticalAlign=middle;resizable=0;points=[];" vertex="1" connectable="0" parent="EnHhpUaNQY2PojhGJ-AY-59">
          <mxGeometry x="0.251" relative="1" as="geometry">
            <mxPoint x="44" as="offset" />
          </mxGeometry>
        </mxCell>
        <mxCell id="EnHhpUaNQY2PojhGJ-AY-64" value="Alt" style="shape=umlFrame;whiteSpace=wrap;html=1;pointerEvents=0;" vertex="1" parent="1">
          <mxGeometry x="50" y="410" width="1260" height="420" as="geometry" />
        </mxCell>
        <mxCell id="EnHhpUaNQY2PojhGJ-AY-65" value="[Number of order equal 0]" style="text;html=1;strokeColor=none;fillColor=none;align=center;verticalAlign=middle;whiteSpace=wrap;rounded=0;" vertex="1" parent="1">
          <mxGeometry x="150" y="415" width="150" height="30" as="geometry" />
        </mxCell>
        <mxCell id="EnHhpUaNQY2PojhGJ-AY-66" value="" style="endArrow=none;dashed=1;html=1;rounded=0;exitX=-0.007;exitY=0.183;exitDx=0;exitDy=0;exitPerimeter=0;entryX=1.007;entryY=0.184;entryDx=0;entryDy=0;entryPerimeter=0;" edge="1" parent="1" source="EnHhpUaNQY2PojhGJ-AY-64" target="EnHhpUaNQY2PojhGJ-AY-64">
          <mxGeometry width="50" height="50" relative="1" as="geometry">
            <mxPoint x="550" y="660" as="sourcePoint" />
            <mxPoint x="600" y="610" as="targetPoint" />
          </mxGeometry>
        </mxCell>
        <mxCell id="EnHhpUaNQY2PojhGJ-AY-67" value="[Else]" style="text;html=1;strokeColor=none;fillColor=none;align=center;verticalAlign=middle;whiteSpace=wrap;rounded=0;" vertex="1" parent="1">
          <mxGeometry x="100" y="520" width="150" height="30" as="geometry" />
        </mxCell>
      </root>
    </mxGraphModel>
  </diagram>
</mxfile>
